<svg id="visual" viewBox="0 0 960 540" width="960" height="540" xmlns="http://www.w3.org/2000/svg" xmlns:xlink="http://www.w3.org/1999/xlink" version="1.1"><rect width="960" height="540" fill="#001829"></rect><g><g transform="translate(422 134)"><path d="M0 -87L61.5 -61.5L87 0L61.5 61.5L0 87L-61.5 61.5L-87 0L-61.5 -61.5Z" fill="none" stroke="#3d36a0" stroke-width="2"></path></g><g transform="translate(577 409)"><path d="M0 -34L24 -24L34 0L24 24L0 34L-24 24L-34 0L-24 -24Z" fill="none" stroke="#3d36a0" stroke-width="2"></path></g><g transform="translate(785 100)"><path d="M0 -63L44.5 -44.5L63 0L44.5 44.5L0 63L-44.5 44.5L-63 0L-44.5 -44.5Z" stroke="#3d36a0" fill="none" stroke-width="2"></path></g><g transform="translate(166 413)"><path d="M0 -53L37.5 -37.5L53 0L37.5 37.5L0 53L-37.5 37.5L-53 0L-37.5 -37.5Z" stroke="#3d36a0" fill="none" stroke-width="2"></path></g><g transform="translate(813 400)"><path d="M0 -73L51.6 -51.6L73 0L51.6 51.6L0 73L-51.6 51.6L-73 0L-51.6 -51.6Z" stroke="#3d36a0" fill="none" stroke-width="2"></path></g><g transform="translate(19 28)"><path d="M0 -42L29.7 -29.7L42 0L29.7 29.7L0 42L-29.7 29.7L-42 0L-29.7 -29.7Z" stroke="#3d36a0" fill="none" stroke-width="2"></path></g><g transform="translate(277 34)"><path d="M0 -77L54.4 -54.4L77 0L54.4 54.4L0 77L-54.4 54.4L-77 0L-54.4 -54.4Z" stroke="#3d36a0" fill="none" stroke-width="2"></path></g><g transform="translate(24 239)"><path d="M0 -63L44.5 -44.5L63 0L44.5 44.5L0 63L-44.5 44.5L-63 0L-44.5 -44.5Z" stroke="#3d36a0" fill="none" stroke-width="2"></path></g></g></svg>