<svg id="visual" viewBox="0 0 900 600" width="900" height="600" xmlns="http://www.w3.org/2000/svg" xmlns:xlink="http://www.w3.org/1999/xlink" version="1.1"><rect width="900" height="600" fill="#001829"></rect><g><g transform="translate(465 151)"><path d="M0 -62.8L44.4 -44.4L62.8 0L44.4 44.4L0 62.8L-44.4 44.4L-62.8 0L-44.4 -44.4Z" fill="none" stroke="#297EA6" stroke-width="2"></path></g><g transform="translate(280 392)"><path d="M0 -58L41 -41L58 0L41 41L0 58L-41 41L-58 0L-41 -41Z" stroke="#297EA6" fill="none" stroke-width="2"></path></g><g transform="translate(661 435)"><path d="M0 -58L41 -41L58 0L41 41L0 58L-41 41L-58 0L-41 -41Z" stroke="#297EA6" fill="none" stroke-width="2"></path></g><g transform="translate(466 520)"><path d="M0 -61L43.1 -43.1L61 0L43.1 43.1L0 61L-43.1 43.1L-61 0L-43.1 -43.1Z" stroke="#297EA6" fill="none" stroke-width="2"></path></g><g transform="translate(178 269)"><path d="M0 -52L36.8 -36.8L52 0L36.8 36.8L0 52L-36.8 36.8L-52 0L-36.8 -36.8Z" stroke="#297EA6" fill="none" stroke-width="2"></path></g><g transform="translate(465 368)"><path d="M0 -49L34.6 -34.6L49 0L34.6 34.6L0 49L-34.6 34.6L-49 0L-34.6 -34.6Z" stroke="#297EA6" fill="none" stroke-width="2"></path></g><g transform="translate(720 170)"><path d="M0 -50L35.4 -35.4L50 0L35.4 35.4L0 50L-35.4 35.4L-50 0L-35.4 -35.4Z" stroke="#297EA6" fill="none" stroke-width="2"></path></g><g transform="translate(67 71)"><path d="M0 -55L38.9 -38.9L55 0L38.9 38.9L0 55L-38.9 38.9L-55 0L-38.9 -38.9Z" stroke="#297EA6" fill="none" stroke-width="2"></path></g></g></svg>