<svg id="visual" viewBox="0 0 900 600" width="900" height="600" xmlns="http://www.w3.org/2000/svg" xmlns:xlink="http://www.w3.org/1999/xlink" version="1.1"><path d="M0 115L13.7 104C27.3 93 54.7 71 82 69C109.3 67 136.7 85 163.8 97C191 109 218 115 245.2 109C272.3 103 299.7 85 327 75C354.3 65 381.7 63 409 65C436.3 67 463.7 73 491 70C518.3 67 545.7 55 573 52C600.3 49 627.7 55 654.8 59C682 63 709 65 736.2 69C763.3 73 790.7 79 818 78C845.3 77 872.7 69 886.3 65L900 61L900 0L886.3 0C872.7 0 845.3 0 818 0C790.7 0 763.3 0 736.2 0C709 0 682 0 654.8 0C627.7 0 600.3 0 573 0C545.7 0 518.3 0 491 0C463.7 0 436.3 0 409 0C381.7 0 354.3 0 327 0C299.7 0 272.3 0 245.2 0C218 0 191 0 163.8 0C136.7 0 109.3 0 82 0C54.7 0 27.3 0 13.7 0L0 0Z" fill="#6198ff"></path><path d="M0 187L13.7 191C27.3 195 54.7 203 82 213C109.3 223 136.7 235 163.8 228C191 221 218 195 245.2 180C272.3 165 299.7 161 327 157C354.3 153 381.7 149 409 147C436.3 145 463.7 145 491 149C518.3 153 545.7 161 573 169C600.3 177 627.7 185 654.8 192C682 199 709 205 736.2 205C763.3 205 790.7 199 818 193C845.3 187 872.7 181 886.3 178L900 175L900 59L886.3 63C872.7 67 845.3 75 818 76C790.7 77 763.3 71 736.2 67C709 63 682 61 654.8 57C627.7 53 600.3 47 573 50C545.7 53 518.3 65 491 68C463.7 71 436.3 65 409 63C381.7 61 354.3 63 327 73C299.7 83 272.3 101 245.2 107C218 113 191 107 163.8 95C136.7 83 109.3 65 82 67C54.7 69 27.3 91 13.7 102L0 113Z" fill="#3c80ff"></path><path d="M0 271L13.7 276C27.3 281 54.7 291 82 294C109.3 297 136.7 293 163.8 287C191 281 218 273 245.2 263C272.3 253 299.7 241 327 236C354.3 231 381.7 233 409 227C436.3 221 463.7 207 491 211C518.3 215 545.7 237 573 248C600.3 259 627.7 259 654.8 265C682 271 709 283 736.2 280C763.3 277 790.7 259 818 252C845.3 245 872.7 249 886.3 251L900 253L900 173L886.3 176C872.7 179 845.3 185 818 191C790.7 197 763.3 203 736.2 203C709 203 682 197 654.8 190C627.7 183 600.3 175 573 167C545.7 159 518.3 151 491 147C463.7 143 436.3 143 409 145C381.7 147 354.3 151 327 155C299.7 159 272.3 163 245.2 178C218 193 191 219 163.8 226C136.7 233 109.3 221 82 211C54.7 201 27.3 193 13.7 189L0 185Z" fill="#0066ff"></path><path d="M0 421L13.7 419C27.3 417 54.7 413 82 416C109.3 419 136.7 429 163.8 432C191 435 218 431 245.2 419C272.3 407 299.7 387 327 382C354.3 377 381.7 387 409 380C436.3 373 463.7 349 491 358C518.3 367 545.7 409 573 435C600.3 461 627.7 471 654.8 459C682 447 709 413 736.2 394C763.3 375 790.7 371 818 375C845.3 379 872.7 391 886.3 397L900 403L900 251L886.3 249C872.7 247 845.3 243 818 250C790.7 257 763.3 275 736.2 278C709 281 682 269 654.8 263C627.7 257 600.3 257 573 246C545.7 235 518.3 213 491 209C463.7 205 436.3 219 409 225C381.7 231 354.3 229 327 234C299.7 239 272.3 251 245.2 261C218 271 191 279 163.8 285C136.7 291 109.3 295 82 292C54.7 289 27.3 279 13.7 274L0 269Z" fill="#0059dd"></path><path d="M0 601L13.7 601C27.3 601 54.7 601 82 601C109.3 601 136.7 601 163.8 601C191 601 218 601 245.2 601C272.3 601 299.7 601 327 601C354.3 601 381.7 601 409 601C436.3 601 463.7 601 491 601C518.3 601 545.7 601 573 601C600.3 601 627.7 601 654.8 601C682 601 709 601 736.2 601C763.3 601 790.7 601 818 601C845.3 601 872.7 601 886.3 601L900 601L900 401L886.3 395C872.7 389 845.3 377 818 373C790.7 369 763.3 373 736.2 392C709 411 682 445 654.8 457C627.7 469 600.3 459 573 433C545.7 407 518.3 365 491 356C463.7 347 436.3 371 409 378C381.7 385 354.3 375 327 380C299.7 385 272.3 405 245.2 417C218 429 191 433 163.8 430C136.7 427 109.3 417 82 414C54.7 411 27.3 415 13.7 417L0 419Z" fill="#004cbb"></path></svg>